<mxfile host="app.diagrams.net" modified="2022-07-22T07:26:38.123Z" agent="5.0 (Windows NT 10.0; Win64; x64) AppleWebKit/537.36 (KHTML, like Gecko) Chrome/103.0.0.0 Safari/537.36" etag="dppx-qElRpJZIq4fvrSi" version="20.1.3" type="github">
  <diagram name="Page-1" id="c7558073-3199-34d8-9f00-42111426c3f3">
    <mxGraphModel dx="1422" dy="762" grid="1" gridSize="10" guides="1" tooltips="1" connect="1" arrows="1" fold="1" page="1" pageScale="1" pageWidth="826" pageHeight="1169" background="none" math="0" shadow="0">
      <root>
        <mxCell id="0" />
        <mxCell id="1" parent="0" />
        <mxCell id="wVxmJ_0KFeqP2abNnQxu-114" style="edgeStyle=orthogonalEdgeStyle;rounded=0;orthogonalLoop=1;jettySize=auto;html=1;exitX=0.5;exitY=1;exitDx=0;exitDy=0;exitPerimeter=0;entryX=0.5;entryY=0;entryDx=0;entryDy=0;" edge="1" parent="1" source="wVxmJ_0KFeqP2abNnQxu-112" target="wVxmJ_0KFeqP2abNnQxu-113">
          <mxGeometry relative="1" as="geometry" />
        </mxCell>
        <mxCell id="wVxmJ_0KFeqP2abNnQxu-112" value="医生 APP 端&lt;br&gt;入驻开始" style="strokeWidth=2;html=1;shape=mxgraph.flowchart.terminator;whiteSpace=wrap;" vertex="1" parent="1">
          <mxGeometry x="363" y="90" width="100" height="60" as="geometry" />
        </mxCell>
        <mxCell id="wVxmJ_0KFeqP2abNnQxu-116" style="edgeStyle=orthogonalEdgeStyle;rounded=0;orthogonalLoop=1;jettySize=auto;html=1;exitX=0.5;exitY=1;exitDx=0;exitDy=0;" edge="1" parent="1" source="wVxmJ_0KFeqP2abNnQxu-113" target="wVxmJ_0KFeqP2abNnQxu-115">
          <mxGeometry relative="1" as="geometry" />
        </mxCell>
        <mxCell id="wVxmJ_0KFeqP2abNnQxu-113" value="短信验证码&lt;br&gt;登录&amp;amp;注册" style="rounded=1;whiteSpace=wrap;html=1;absoluteArcSize=1;arcSize=14;strokeWidth=2;" vertex="1" parent="1">
          <mxGeometry x="363" y="190" width="100" height="100" as="geometry" />
        </mxCell>
        <mxCell id="wVxmJ_0KFeqP2abNnQxu-117" style="edgeStyle=orthogonalEdgeStyle;rounded=0;orthogonalLoop=1;jettySize=auto;html=1;exitX=1;exitY=0.5;exitDx=0;exitDy=0;exitPerimeter=0;entryX=1;entryY=0.5;entryDx=0;entryDy=0;entryPerimeter=0;" edge="1" parent="1" source="wVxmJ_0KFeqP2abNnQxu-115" target="wVxmJ_0KFeqP2abNnQxu-120">
          <mxGeometry relative="1" as="geometry">
            <mxPoint x="510" y="510" as="targetPoint" />
            <Array as="points">
              <mxPoint x="510" y="380" />
              <mxPoint x="510" y="850" />
            </Array>
          </mxGeometry>
        </mxCell>
        <mxCell id="wVxmJ_0KFeqP2abNnQxu-119" value="已认证" style="edgeLabel;html=1;align=center;verticalAlign=middle;resizable=0;points=[];" vertex="1" connectable="0" parent="wVxmJ_0KFeqP2abNnQxu-117">
          <mxGeometry x="-0.0132" y="2" relative="1" as="geometry">
            <mxPoint y="20" as="offset" />
          </mxGeometry>
        </mxCell>
        <mxCell id="wVxmJ_0KFeqP2abNnQxu-121" style="edgeStyle=orthogonalEdgeStyle;rounded=0;orthogonalLoop=1;jettySize=auto;html=1;" edge="1" parent="1" source="wVxmJ_0KFeqP2abNnQxu-115">
          <mxGeometry relative="1" as="geometry">
            <mxPoint x="320" y="510" as="targetPoint" />
          </mxGeometry>
        </mxCell>
        <mxCell id="wVxmJ_0KFeqP2abNnQxu-122" value="未认证" style="edgeLabel;html=1;align=center;verticalAlign=middle;resizable=0;points=[];" vertex="1" connectable="0" parent="wVxmJ_0KFeqP2abNnQxu-121">
          <mxGeometry x="0.0867" relative="1" as="geometry">
            <mxPoint y="9" as="offset" />
          </mxGeometry>
        </mxCell>
        <mxCell id="wVxmJ_0KFeqP2abNnQxu-115" value="是否认证" style="strokeWidth=2;html=1;shape=mxgraph.flowchart.decision;whiteSpace=wrap;" vertex="1" parent="1">
          <mxGeometry x="363" y="330" width="100" height="100" as="geometry" />
        </mxCell>
        <mxCell id="wVxmJ_0KFeqP2abNnQxu-120" value="医生APP端&lt;br&gt;入驻结束" style="strokeWidth=2;html=1;shape=mxgraph.flowchart.terminator;whiteSpace=wrap;" vertex="1" parent="1">
          <mxGeometry x="375" y="820" width="100" height="60" as="geometry" />
        </mxCell>
        <mxCell id="wVxmJ_0KFeqP2abNnQxu-135" style="edgeStyle=orthogonalEdgeStyle;rounded=0;orthogonalLoop=1;jettySize=auto;html=1;exitX=1;exitY=0.5;exitDx=0;exitDy=0;exitPerimeter=0;" edge="1" parent="1" source="wVxmJ_0KFeqP2abNnQxu-124" target="wVxmJ_0KFeqP2abNnQxu-120">
          <mxGeometry relative="1" as="geometry" />
        </mxCell>
        <mxCell id="wVxmJ_0KFeqP2abNnQxu-136" value="审核通过" style="edgeLabel;html=1;align=center;verticalAlign=middle;resizable=0;points=[];" vertex="1" connectable="0" parent="wVxmJ_0KFeqP2abNnQxu-135">
          <mxGeometry x="0.01" y="1" relative="1" as="geometry">
            <mxPoint x="-1" y="19" as="offset" />
          </mxGeometry>
        </mxCell>
        <mxCell id="wVxmJ_0KFeqP2abNnQxu-140" style="edgeStyle=orthogonalEdgeStyle;rounded=0;orthogonalLoop=1;jettySize=auto;html=1;entryX=0;entryY=0.65;entryDx=0;entryDy=0;entryPerimeter=0;" edge="1" parent="1" source="wVxmJ_0KFeqP2abNnQxu-124" target="wVxmJ_0KFeqP2abNnQxu-120">
          <mxGeometry relative="1" as="geometry">
            <Array as="points">
              <mxPoint x="190" y="670" />
              <mxPoint x="190" y="859" />
            </Array>
          </mxGeometry>
        </mxCell>
        <mxCell id="wVxmJ_0KFeqP2abNnQxu-141" value="审核未通过" style="edgeLabel;html=1;align=center;verticalAlign=middle;resizable=0;points=[];" vertex="1" connectable="0" parent="wVxmJ_0KFeqP2abNnQxu-140">
          <mxGeometry x="-0.4165" y="1" relative="1" as="geometry">
            <mxPoint y="14" as="offset" />
          </mxGeometry>
        </mxCell>
        <mxCell id="wVxmJ_0KFeqP2abNnQxu-124" value="医生资质审核" style="strokeWidth=2;html=1;shape=mxgraph.flowchart.decision;whiteSpace=wrap;" vertex="1" parent="1">
          <mxGeometry x="265" y="620" width="110" height="100" as="geometry" />
        </mxCell>
        <mxCell id="wVxmJ_0KFeqP2abNnQxu-138" style="edgeStyle=orthogonalEdgeStyle;rounded=0;orthogonalLoop=1;jettySize=auto;html=1;entryX=0.5;entryY=0;entryDx=0;entryDy=0;entryPerimeter=0;" edge="1" parent="1" source="wVxmJ_0KFeqP2abNnQxu-137" target="wVxmJ_0KFeqP2abNnQxu-124">
          <mxGeometry relative="1" as="geometry" />
        </mxCell>
        <mxCell id="wVxmJ_0KFeqP2abNnQxu-137" value="上传医生&lt;br&gt;基本资料&lt;br&gt;职业信息" style="verticalLabelPosition=middle;verticalAlign=middle;html=1;shape=trapezoid;perimeter=trapezoidPerimeter;whiteSpace=wrap;size=0.23;arcSize=10;flipV=1;labelPosition=center;align=center;" vertex="1" parent="1">
          <mxGeometry x="270" y="510" width="100" height="60" as="geometry" />
        </mxCell>
      </root>
    </mxGraphModel>
  </diagram>
</mxfile>
